<svg width="325" height="102" viewBox="0 0 325 102" fill="none" xmlns="http://www.w3.org/2000/svg">
<path d="M48.0509 23.1539C46.3002 23.1539 44.8095 22.7639 43.5789 21.9839C42.3655 21.1866 41.5162 20.0859 41.0309 18.6819L43.6049 17.1739C44.3329 19.2193 45.8409 20.2419 48.1289 20.2419C49.2382 20.2419 50.0789 20.0253 50.6509 19.5919C51.2229 19.1586 51.5089 18.5779 51.5089 17.8499C51.5089 17.1219 51.2055 16.5586 50.5989 16.1599C49.9922 15.7613 48.9175 15.3279 47.3749 14.8599C45.7975 14.3919 44.5235 13.8373 43.5529 13.1959C42.3742 12.3639 41.7849 11.1419 41.7849 9.52992C41.7849 7.91792 42.3569 6.64392 43.5009 5.70792C44.6275 4.75458 46.0055 4.27792 47.6349 4.27792C49.0735 4.27792 50.3389 4.63325 51.4309 5.34392C52.5402 6.03725 53.3895 7.01658 53.9789 8.28192L51.4569 9.73792C50.6942 8.03925 49.4202 7.18992 47.6349 7.18992C46.7682 7.18992 46.0749 7.39792 45.5549 7.81392C45.0349 8.21258 44.7749 8.75858 44.7749 9.45192C44.7749 10.1279 45.0349 10.6653 45.5549 11.0639C46.0749 11.4453 47.0369 11.8526 48.4409 12.2859C49.3075 12.5806 49.8102 12.7539 49.9489 12.8059C50.1742 12.8753 50.6249 13.0486 51.3009 13.3259C51.8555 13.5513 52.2975 13.7939 52.6269 14.0539C53.9789 15.1113 54.6029 16.3593 54.4989 17.7979C54.4989 19.4446 53.9009 20.7533 52.7049 21.7239C51.5435 22.6773 49.9922 23.1539 48.0509 23.1539ZM69.8064 17.5119H59.4584C59.6664 18.4826 60.1344 19.2366 60.8624 19.7739C61.6077 20.3113 62.5264 20.5799 63.6184 20.5799C65.0917 20.5799 66.2097 20.0426 66.9724 18.9679L69.2864 20.3199C68.021 22.2093 66.123 23.1539 63.5924 23.1539C61.495 23.1539 59.7877 22.5126 58.4704 21.2299C57.1704 19.9299 56.5204 18.2919 56.5204 16.3159C56.5204 14.3919 57.1617 12.7713 58.4444 11.4539C59.7097 10.1366 61.3564 9.47792 63.3844 9.47792C65.2737 9.47792 66.8337 10.1453 68.0644 11.4799C69.295 12.8146 69.9104 14.4353 69.9104 16.3419C69.9104 16.6886 69.8757 17.0786 69.8064 17.5119ZM59.4324 15.2239H67.0764C66.8857 14.2013 66.4524 13.4126 65.7764 12.8579C65.1177 12.3033 64.3117 12.0259 63.3584 12.0259C62.3184 12.0259 61.4517 12.3119 60.7584 12.8839C60.065 13.4559 59.623 14.2359 59.4324 15.2239ZM75.1892 22.8159H72.3812V3.83592H75.1892V22.8159ZM91.0075 17.5119H80.6595C80.8675 18.4826 81.3355 19.2366 82.0635 19.7739C82.8089 20.3113 83.7275 20.5799 84.8195 20.5799C86.2929 20.5799 87.4109 20.0426 88.1735 18.9679L90.4875 20.3199C89.2222 22.2093 87.3242 23.1539 84.7935 23.1539C82.6962 23.1539 80.9889 22.5126 79.6715 21.2299C78.3715 19.9299 77.7215 18.2919 77.7215 16.3159C77.7215 14.3919 78.3629 12.7713 79.6455 11.4539C80.9109 10.1366 82.5575 9.47792 84.5855 9.47792C86.4749 9.47792 88.0349 10.1453 89.2655 11.4799C90.4962 12.8146 91.1115 14.4353 91.1115 16.3419C91.1115 16.6886 91.0769 17.0786 91.0075 17.5119ZM80.6335 15.2239H88.2775C88.0869 14.2013 87.6535 13.4126 86.9775 12.8579C86.3189 12.3033 85.5129 12.0259 84.5595 12.0259C83.5195 12.0259 82.6529 12.3119 81.9595 12.8839C81.2662 13.4559 80.8242 14.2359 80.6335 15.2239ZM99.6422 23.1539C97.6835 23.1539 96.0455 22.4953 94.7282 21.1779C93.4282 19.8433 92.7782 18.2226 92.7782 16.3159C92.7782 14.3746 93.4282 12.7539 94.7282 11.4539C96.0455 10.1366 97.6835 9.47792 99.6422 9.47792C100.907 9.47792 102.06 9.78125 103.1 10.3879C104.14 10.9946 104.92 11.8093 105.44 12.8319L103.022 14.2359C102.727 13.6119 102.277 13.1266 101.67 12.7799C101.081 12.4159 100.396 12.2339 99.6162 12.2339C98.4722 12.2339 97.5102 12.6239 96.7302 13.4039C95.9675 14.2013 95.5862 15.1719 95.5862 16.3159C95.5862 17.4599 95.9675 18.4306 96.7302 19.2279C97.5102 20.0079 98.4722 20.3979 99.6162 20.3979C100.379 20.3979 101.063 20.2246 101.67 19.8779C102.294 19.5139 102.762 19.0199 103.074 18.3959L105.492 19.7739C104.937 20.8139 104.131 21.6373 103.074 22.2439C102.034 22.8506 100.89 23.1539 99.6422 23.1539ZM114.776 9.81592V12.5199H111.552V18.7599C111.552 19.2973 111.673 19.6873 111.916 19.9299C112.158 20.1553 112.514 20.2853 112.982 20.3199C113.467 20.3373 114.065 20.3286 114.776 20.2939V22.8159C112.626 23.0759 111.084 22.8939 110.148 22.2699C109.212 21.6286 108.744 20.4586 108.744 18.7599V12.5199H106.352V9.81592H108.744V7.00792L111.552 6.17592V9.81592H114.776ZM134.714 4.61592H138.12L131.776 15.5879V22.8159H128.786V15.5879L122.442 4.61592H125.848L130.294 12.6759L134.714 4.61592ZM148.303 21.1779C146.986 22.4953 145.365 23.1539 143.441 23.1539C141.517 23.1539 139.896 22.4953 138.579 21.1779C137.244 19.8433 136.577 18.2226 136.577 16.3159C136.577 14.4093 137.244 12.7886 138.579 11.4539C139.896 10.1366 141.517 9.47792 143.441 9.47792C145.365 9.47792 146.986 10.1366 148.303 11.4539C149.638 12.7886 150.305 14.4093 150.305 16.3159C150.305 18.2226 149.638 19.8433 148.303 21.1779ZM139.385 16.3159C139.385 17.4946 139.775 18.4739 140.555 19.2539C141.335 20.0339 142.297 20.4239 143.441 20.4239C144.585 20.4239 145.547 20.0339 146.327 19.2539C147.107 18.4739 147.497 17.4946 147.497 16.3159C147.497 15.1373 147.107 14.1579 146.327 13.3779C145.547 12.5979 144.585 12.2079 143.441 12.2079C142.297 12.2079 141.335 12.5979 140.555 13.3779C139.775 14.1579 139.385 15.1373 139.385 16.3159ZM161.606 16.7839V9.81592H164.414V22.8159H161.606V21.1519C160.739 22.4866 159.396 23.1539 157.576 23.1539C156.068 23.1539 154.855 22.6773 153.936 21.7239C153.035 20.7533 152.584 19.4446 152.584 17.7979V9.81592H155.392V17.5119C155.392 18.4826 155.652 19.2279 156.172 19.7479C156.692 20.2679 157.403 20.5279 158.304 20.5279C159.327 20.5279 160.133 20.2159 160.722 19.5919C161.311 18.9506 161.606 18.0146 161.606 16.7839ZM170.506 9.81592V11.9999C171.216 10.3879 172.551 9.58192 174.51 9.58192V12.6239C173.452 12.5546 172.516 12.8146 171.702 13.4039C170.904 13.9759 170.506 14.9293 170.506 16.2639V22.8159H167.698V9.81592H170.506ZM186.256 4.61592V19.9559H193.666V22.8159H183.266V4.61592H186.256ZM206.295 21.1779C204.978 22.4953 203.357 23.1539 201.433 23.1539C199.509 23.1539 197.889 22.4953 196.571 21.1779C195.237 19.8433 194.569 18.2226 194.569 16.3159C194.569 14.4093 195.237 12.7886 196.571 11.4539C197.889 10.1366 199.509 9.47792 201.433 9.47792C203.357 9.47792 204.978 10.1366 206.295 11.4539C207.63 12.7886 208.297 14.4093 208.297 16.3159C208.297 18.2226 207.63 19.8433 206.295 21.1779ZM197.377 16.3159C197.377 17.4946 197.767 18.4739 198.547 19.2539C199.327 20.0339 200.289 20.4239 201.433 20.4239C202.577 20.4239 203.539 20.0339 204.319 19.2539C205.099 18.4739 205.489 17.4946 205.489 16.3159C205.489 15.1373 205.099 14.1579 204.319 13.3779C203.539 12.5979 202.577 12.2079 201.433 12.2079C200.289 12.2079 199.327 12.5979 198.547 13.3779C197.767 14.1579 197.377 15.1373 197.377 16.3159ZM216.972 23.1539C215.014 23.1539 213.376 22.4953 212.058 21.1779C210.758 19.8433 210.108 18.2226 210.108 16.3159C210.108 14.3746 210.758 12.7539 212.058 11.4539C213.376 10.1366 215.014 9.47792 216.972 9.47792C218.238 9.47792 219.39 9.78125 220.43 10.3879C221.47 10.9946 222.25 11.8093 222.77 12.8319L220.352 14.2359C220.058 13.6119 219.607 13.1266 219 12.7799C218.411 12.4159 217.726 12.2339 216.946 12.2339C215.802 12.2339 214.84 12.6239 214.06 13.4039C213.298 14.2013 212.916 15.1719 212.916 16.3159C212.916 17.4599 213.298 18.4306 214.06 19.2279C214.84 20.0079 215.802 20.3979 216.946 20.3979C217.709 20.3979 218.394 20.2246 219 19.8779C219.624 19.5139 220.092 19.0199 220.404 18.3959L222.822 19.7739C222.268 20.8139 221.462 21.6373 220.404 22.2439C219.364 22.8506 218.22 23.1539 216.972 23.1539ZM234.945 11.6619V9.81592H237.753V22.8159H234.945V20.9439C233.887 22.4173 232.371 23.1539 230.395 23.1539C228.609 23.1539 227.084 22.4953 225.819 21.1779C224.553 19.8606 223.921 18.2399 223.921 16.3159C223.921 14.3919 224.553 12.7713 225.819 11.4539C227.084 10.1366 228.609 9.47792 230.395 9.47792C232.371 9.47792 233.887 10.2059 234.945 11.6619ZM227.899 19.3059C228.679 20.0859 229.658 20.4759 230.837 20.4759C232.015 20.4759 232.995 20.0859 233.775 19.3059C234.555 18.5086 234.945 17.5119 234.945 16.3159C234.945 15.1199 234.555 14.1319 233.775 13.3519C232.995 12.5546 232.015 12.1559 230.837 12.1559C229.658 12.1559 228.679 12.5546 227.899 13.3519C227.119 14.1319 226.729 15.1199 226.729 16.3159C226.729 17.4946 227.119 18.4913 227.899 19.3059ZM248.28 9.81592V12.5199H245.056V18.7599C245.056 19.2973 245.177 19.6873 245.42 19.9299C245.662 20.1553 246.018 20.2853 246.486 20.3199C246.971 20.3373 247.569 20.3286 248.28 20.2939V22.8159C246.13 23.0759 244.588 22.8939 243.652 22.2699C242.716 21.6286 242.248 20.4586 242.248 18.7599V12.5199H239.856V9.81592H242.248V7.00792L245.056 6.17592V9.81592H248.28ZM253.478 7.34592C253.132 7.69258 252.716 7.86592 252.23 7.86592C251.745 7.86592 251.32 7.69258 250.956 7.34592C250.61 6.98192 250.436 6.55725 250.436 6.07192C250.436 5.58658 250.61 5.17058 250.956 4.82392C251.303 4.45992 251.728 4.27792 252.23 4.27792C252.733 4.27792 253.158 4.45992 253.504 4.82392C253.851 5.17058 254.024 5.58658 254.024 6.07192C254.024 6.55725 253.842 6.98192 253.478 7.34592ZM253.634 22.8159H250.826V9.81592H253.634V22.8159ZM267.893 21.1779C266.576 22.4953 264.955 23.1539 263.031 23.1539C261.107 23.1539 259.486 22.4953 258.169 21.1779C256.834 19.8433 256.167 18.2226 256.167 16.3159C256.167 14.4093 256.834 12.7886 258.169 11.4539C259.486 10.1366 261.107 9.47792 263.031 9.47792C264.955 9.47792 266.576 10.1366 267.893 11.4539C269.228 12.7886 269.895 14.4093 269.895 16.3159C269.895 18.2226 269.228 19.8433 267.893 21.1779ZM258.975 16.3159C258.975 17.4946 259.365 18.4739 260.145 19.2539C260.925 20.0339 261.887 20.4239 263.031 20.4239C264.175 20.4239 265.137 20.0339 265.917 19.2539C266.697 18.4739 267.087 17.4946 267.087 16.3159C267.087 15.1373 266.697 14.1579 265.917 13.3779C265.137 12.5979 264.175 12.2079 263.031 12.2079C261.887 12.2079 260.925 12.5979 260.145 13.3779C259.365 14.1579 258.975 15.1373 258.975 16.3159ZM279.272 9.47792C280.78 9.47792 281.985 9.96325 282.886 10.9339C283.805 11.8873 284.264 13.1873 284.264 14.8339V22.8159H281.456V15.1199C281.456 14.1493 281.196 13.4039 280.676 12.8839C280.156 12.3639 279.445 12.1039 278.544 12.1039C277.521 12.1039 276.715 12.4246 276.126 13.0659C275.537 13.6899 275.242 14.6173 275.242 15.8479V22.8159H272.434V9.81592H275.242V11.4799C276.109 10.1453 277.452 9.47792 279.272 9.47792Z" fill="#181725"/>
<path d="M5.8431 57.0239C4.79777 57.0239 3.90177 56.7786 3.1551 56.2879C2.4191 55.7973 1.90177 55.1253 1.6031 54.2719L2.8831 53.5359C3.32043 54.8906 4.31777 55.5679 5.8751 55.5679C6.6431 55.5679 7.22977 55.4133 7.6351 55.1039C8.04043 54.7839 8.2431 54.3626 8.2431 53.8399C8.2431 53.3066 8.04043 52.9066 7.6351 52.6399C7.22977 52.3733 6.55243 52.0906 5.6031 51.7919C5.13377 51.6426 4.77643 51.5253 4.5311 51.4399C4.28577 51.3439 3.97643 51.2053 3.6031 51.0239C3.24043 50.8319 2.96843 50.6399 2.7871 50.4479C2.60577 50.2453 2.44043 49.9839 2.2911 49.6639C2.15243 49.3439 2.0831 48.9813 2.0831 48.5759C2.0831 47.6053 2.42443 46.8373 3.1071 46.2719C3.78977 45.6959 4.62177 45.4079 5.6031 45.4079C6.48843 45.4079 7.25643 45.6319 7.9071 46.0799C8.56843 46.5279 9.06443 47.1199 9.3951 47.8559L8.1471 48.5759C7.6671 47.4239 6.8191 46.8479 5.6031 46.8479C4.9951 46.8479 4.50443 46.9973 4.1311 47.2959C3.75777 47.5946 3.5711 47.9999 3.5711 48.5119C3.5711 49.0026 3.7471 49.3759 4.0991 49.6319C4.4511 49.8879 5.0591 50.1546 5.9231 50.4319C6.23243 50.5279 6.4511 50.5973 6.5791 50.6399C6.7071 50.6826 6.90443 50.7573 7.1711 50.8639C7.44843 50.9706 7.6511 51.0559 7.7791 51.1199C7.9071 51.1839 8.07777 51.2746 8.2911 51.3919C8.5151 51.5093 8.68043 51.6213 8.7871 51.7279C8.89377 51.8346 9.01643 51.9679 9.1551 52.1279C9.30443 52.2773 9.4111 52.4319 9.4751 52.5919C9.5391 52.7519 9.59243 52.9386 9.6351 53.1519C9.68843 53.3546 9.7151 53.5733 9.7151 53.8079C9.7151 54.7893 9.35777 55.5733 8.6431 56.1599C7.92843 56.7359 6.9951 57.0239 5.8431 57.0239ZM20.4446 48.8159H21.9006L19.4206 56.8159H17.9966L16.1246 50.8959L14.2526 56.8159H12.8286L10.3486 48.8159H11.8046L13.5646 54.8959L15.4526 48.8159H16.7966L18.6846 54.9119L20.4446 48.8159ZM24.0371 47.3599C23.7704 47.3599 23.5464 47.2693 23.3651 47.0879C23.1838 46.9066 23.0931 46.6879 23.0931 46.4319C23.0931 46.1759 23.1838 45.9573 23.3651 45.7759C23.5464 45.5839 23.7704 45.4879 24.0371 45.4879C24.2931 45.4879 24.5118 45.5839 24.6931 45.7759C24.8744 45.9573 24.9651 46.1759 24.9651 46.4319C24.9651 46.6879 24.8744 46.9066 24.6931 47.0879C24.5118 47.2693 24.2931 47.3599 24.0371 47.3599ZM23.3331 56.8159V48.8159H24.7251V56.8159H23.3331ZM31.2007 50.1599H29.0727V54.4959C29.0727 54.8906 29.1474 55.1733 29.2967 55.3439C29.4567 55.5039 29.6967 55.5893 30.0167 55.5999C30.3367 55.5999 30.7314 55.5893 31.2007 55.5679V56.8159C29.9847 56.9759 29.0941 56.8799 28.5287 56.5279C27.9634 56.1653 27.6807 55.4879 27.6807 54.4959V50.1599H26.0967V48.8159H27.6807V46.9919L29.0727 46.5759V48.8159H31.2007V50.1599ZM36.8327 48.6079C37.7714 48.6079 38.5234 48.9066 39.0887 49.5039C39.6541 50.0906 39.9367 50.8906 39.9367 51.9039V56.8159H38.5447V51.9839C38.5447 51.3333 38.3687 50.8319 38.0167 50.4799C37.6647 50.1173 37.1794 49.9359 36.5607 49.9359C35.8674 49.9359 35.3074 50.1546 34.8807 50.5919C34.4541 51.0186 34.2407 51.6799 34.2407 52.5759V56.8159H32.8487V45.6159H34.2407V49.9679C34.8061 49.0613 35.6701 48.6079 36.8327 48.6079ZM45.64 57.0239C44.4346 57.0239 43.432 56.6239 42.632 55.8239C41.832 55.0133 41.432 54.0106 41.432 52.8159C41.432 51.6213 41.832 50.6239 42.632 49.8239C43.432 49.0133 44.4346 48.6079 45.64 48.6079C46.4293 48.6079 47.1386 48.7999 47.768 49.1839C48.3973 49.5573 48.8666 50.0639 49.176 50.7039L48.008 51.3759C47.8053 50.9493 47.4906 50.6079 47.064 50.3519C46.648 50.0959 46.1733 49.9679 45.64 49.9679C44.84 49.9679 44.168 50.2399 43.624 50.7839C43.0906 51.3279 42.824 52.0053 42.824 52.8159C42.824 53.6159 43.0906 54.2879 43.624 54.8319C44.168 55.3759 44.84 55.6479 45.64 55.6479C46.1733 55.6479 46.6533 55.5253 47.08 55.2799C47.5066 55.0239 47.832 54.6826 48.056 54.2559L49.24 54.9439C48.8986 55.5733 48.408 56.0799 47.768 56.4639C47.128 56.8373 46.4186 57.0239 45.64 57.0239ZM54.5984 48.6079C55.537 48.6079 56.289 48.9066 56.8544 49.5039C57.4197 50.0906 57.7023 50.8906 57.7023 51.9039V56.8159H56.3103V51.9839C56.3103 51.3333 56.1343 50.8319 55.7824 50.4799C55.4303 50.1173 54.945 49.9359 54.3263 49.9359C53.633 49.9359 53.073 50.1546 52.6463 50.5919C52.2197 51.0186 52.0063 51.6799 52.0063 52.5759V56.8159H50.6143V45.6159H52.0063V49.9679C52.5717 49.0613 53.4357 48.6079 54.5984 48.6079ZM70.3976 55.8079C69.5763 56.6186 68.5789 57.0239 67.4056 57.0239C66.2323 57.0239 65.2349 56.6186 64.4136 55.8079C63.6029 54.9973 63.1976 53.9999 63.1976 52.8159C63.1976 51.6319 63.6029 50.6346 64.4136 49.8239C65.2349 49.0133 66.2323 48.6079 67.4056 48.6079C68.5789 48.6079 69.5763 49.0133 70.3976 49.8239C71.2189 50.6346 71.6296 51.6319 71.6296 52.8159C71.6296 53.9999 71.2189 54.9973 70.3976 55.8079ZM67.4056 55.6639C68.2056 55.6639 68.8776 55.3919 69.4216 54.8479C69.9656 54.3039 70.2376 53.6266 70.2376 52.8159C70.2376 52.0053 69.9656 51.3279 69.4216 50.7839C68.8776 50.2399 68.2056 49.9679 67.4056 49.9679C66.6163 49.9679 65.9496 50.2399 65.4056 50.7839C64.8616 51.3279 64.5896 52.0053 64.5896 52.8159C64.5896 53.6266 64.8616 54.3039 65.4056 54.8479C65.9496 55.3919 66.6163 55.6639 67.4056 55.6639ZM77.2546 48.6079C78.1933 48.6079 78.9453 48.9066 79.5106 49.5039C80.0759 50.0906 80.3586 50.8906 80.3586 51.9039V56.8159H78.9666V51.9839C78.9666 51.3333 78.7906 50.8319 78.4386 50.4799C78.0866 50.1173 77.6013 49.9359 76.9826 49.9359C76.2893 49.9359 75.7293 50.1546 75.3026 50.5919C74.8759 51.0186 74.6626 51.6799 74.6626 52.5759V56.8159H73.2706V48.8159H74.6626V49.9679C75.2279 49.0613 76.0919 48.6079 77.2546 48.6079ZM91.8858 48.8159H93.3738L90.1098 57.3119C89.7685 58.2186 89.2885 58.9066 88.6698 59.3759C88.0618 59.8559 87.3578 60.0693 86.5578 60.0159V58.7199C87.5392 58.7946 88.2592 58.2506 88.7178 57.0879L88.8618 56.7839L85.3738 48.8159H86.8618L89.5819 55.0879L91.8858 48.8159ZM100.976 55.8079C100.154 56.6186 99.1571 57.0239 97.9837 57.0239C96.8104 57.0239 95.8131 56.6186 94.9917 55.8079C94.1811 54.9973 93.7757 53.9999 93.7757 52.8159C93.7757 51.6319 94.1811 50.6346 94.9917 49.8239C95.8131 49.0133 96.8104 48.6079 97.9837 48.6079C99.1571 48.6079 100.154 49.0133 100.976 49.8239C101.797 50.6346 102.208 51.6319 102.208 52.8159C102.208 53.9999 101.797 54.9973 100.976 55.8079ZM97.9837 55.6639C98.7837 55.6639 99.4557 55.3919 99.9997 54.8479C100.544 54.3039 100.816 53.6266 100.816 52.8159C100.816 52.0053 100.544 51.3279 99.9997 50.7839C99.4557 50.2399 98.7837 49.9679 97.9837 49.9679C97.1944 49.9679 96.5277 50.2399 95.9837 50.7839C95.4397 51.3279 95.1677 52.0053 95.1677 52.8159C95.1677 53.6266 95.4397 54.3039 95.9837 54.8479C96.5277 55.3919 97.1944 55.6639 97.9837 55.6639ZM109.369 48.8159H110.761V56.8159H109.369V55.6639C108.803 56.5706 107.939 57.0239 106.777 57.0239C105.838 57.0239 105.086 56.7306 104.521 56.1439C103.955 55.5466 103.673 54.7413 103.673 53.7279V48.8159H105.065V53.6479C105.065 54.2986 105.241 54.8053 105.593 55.1679C105.945 55.5199 106.43 55.6959 107.049 55.6959C107.742 55.6959 108.302 55.4826 108.729 55.0559C109.155 54.6186 109.369 53.9519 109.369 53.0559V48.8159ZM114.272 50.1599C114.731 49.1679 115.563 48.6719 116.768 48.6719V50.1279C116.085 50.0959 115.499 50.2773 115.008 50.6719C114.517 51.0666 114.272 51.7013 114.272 52.5759V56.8159H112.88V48.8159H114.272V50.1599ZM122.13 56.8159V45.1359H123.522V56.8159H122.13ZM132.398 55.8079C131.576 56.6186 130.579 57.0239 129.406 57.0239C128.232 57.0239 127.235 56.6186 126.414 55.8079C125.603 54.9973 125.198 53.9999 125.198 52.8159C125.198 51.6319 125.603 50.6346 126.414 49.8239C127.235 49.0133 128.232 48.6079 129.406 48.6079C130.579 48.6079 131.576 49.0133 132.398 49.8239C133.219 50.6346 133.63 51.6319 133.63 52.8159C133.63 53.9999 133.219 54.9973 132.398 55.8079ZM129.406 55.6639C130.206 55.6639 130.878 55.3919 131.422 54.8479C131.966 54.3039 132.238 53.6266 132.238 52.8159C132.238 52.0053 131.966 51.3279 131.422 50.7839C130.878 50.2399 130.206 49.9679 129.406 49.9679C128.616 49.9679 127.95 50.2399 127.406 50.7839C126.862 51.3279 126.59 52.0053 126.59 52.8159C126.59 53.6266 126.862 54.3039 127.406 54.8479C127.95 55.3919 128.616 55.6639 129.406 55.6639ZM139.031 57.0239C137.825 57.0239 136.823 56.6239 136.023 55.8239C135.223 55.0133 134.823 54.0106 134.823 52.8159C134.823 51.6213 135.223 50.6239 136.023 49.8239C136.823 49.0133 137.825 48.6079 139.031 48.6079C139.82 48.6079 140.529 48.7999 141.159 49.1839C141.788 49.5573 142.257 50.0639 142.567 50.7039L141.399 51.3759C141.196 50.9493 140.881 50.6079 140.455 50.3519C140.039 50.0959 139.564 49.9679 139.031 49.9679C138.231 49.9679 137.559 50.2399 137.015 50.7839C136.481 51.3279 136.215 52.0053 136.215 52.8159C136.215 53.6159 136.481 54.2879 137.015 54.8319C137.559 55.3759 138.231 55.6479 139.031 55.6479C139.564 55.6479 140.044 55.5253 140.471 55.2799C140.897 55.0239 141.223 54.6826 141.447 54.2559L142.631 54.9439C142.289 55.5733 141.799 56.0799 141.159 56.4639C140.519 56.8373 139.809 57.0239 139.031 57.0239ZM150.52 48.8159H151.912V56.8159H150.52V55.4399C149.826 56.4959 148.818 57.0239 147.496 57.0239C146.376 57.0239 145.421 56.6186 144.632 55.8079C143.842 54.9866 143.448 53.9893 143.448 52.8159C143.448 51.6426 143.842 50.6506 144.632 49.8399C145.421 49.0186 146.376 48.6079 147.496 48.6079C148.818 48.6079 149.826 49.1359 150.52 50.1919V48.8159ZM147.672 55.6799C148.482 55.6799 149.16 55.4079 149.704 54.8639C150.248 54.3093 150.52 53.6266 150.52 52.8159C150.52 52.0053 150.248 51.3279 149.704 50.7839C149.16 50.2293 148.482 49.9519 147.672 49.9519C146.872 49.9519 146.2 50.2293 145.656 50.7839C145.112 51.3279 144.84 52.0053 144.84 52.8159C144.84 53.6266 145.112 54.3093 145.656 54.8639C146.2 55.4079 146.872 55.6799 147.672 55.6799ZM158.373 50.1599H156.245V54.4959C156.245 54.8906 156.319 55.1733 156.469 55.3439C156.629 55.5039 156.869 55.5893 157.189 55.5999C157.509 55.5999 157.903 55.5893 158.373 55.5679V56.8159C157.157 56.9759 156.266 56.8799 155.701 56.5279C155.135 56.1653 154.853 55.4879 154.853 54.4959V50.1599H153.269V48.8159H154.853V46.9919L156.245 46.5759V48.8159H158.373V50.1599ZM160.725 47.3599C160.458 47.3599 160.234 47.2693 160.053 47.0879C159.871 46.9066 159.781 46.6879 159.781 46.4319C159.781 46.1759 159.871 45.9573 160.053 45.7759C160.234 45.5839 160.458 45.4879 160.725 45.4879C160.981 45.4879 161.199 45.5839 161.381 45.7759C161.562 45.9573 161.653 46.1759 161.653 46.4319C161.653 46.6879 161.562 46.9066 161.381 47.0879C161.199 47.2693 160.981 47.3599 160.725 47.3599ZM160.021 56.8159V48.8159H161.413V56.8159H160.021ZM170.288 55.8079C169.467 56.6186 168.47 57.0239 167.296 57.0239C166.123 57.0239 165.126 56.6186 164.304 55.8079C163.494 54.9973 163.088 53.9999 163.088 52.8159C163.088 51.6319 163.494 50.6346 164.304 49.8239C165.126 49.0133 166.123 48.6079 167.296 48.6079C168.47 48.6079 169.467 49.0133 170.288 49.8239C171.11 50.6346 171.52 51.6319 171.52 52.8159C171.52 53.9999 171.11 54.9973 170.288 55.8079ZM167.296 55.6639C168.096 55.6639 168.768 55.3919 169.312 54.8479C169.856 54.3039 170.128 53.6266 170.128 52.8159C170.128 52.0053 169.856 51.3279 169.312 50.7839C168.768 50.2399 168.096 49.9679 167.296 49.9679C166.507 49.9679 165.84 50.2399 165.296 50.7839C164.752 51.3279 164.48 52.0053 164.48 52.8159C164.48 53.6266 164.752 54.3039 165.296 54.8479C165.84 55.3919 166.507 55.6639 167.296 55.6639ZM177.145 48.6079C178.084 48.6079 178.836 48.9066 179.401 49.5039C179.967 50.0906 180.249 50.8906 180.249 51.9039V56.8159H178.857V51.9839C178.857 51.3333 178.681 50.8319 178.329 50.4799C177.977 50.1173 177.492 49.9359 176.873 49.9359C176.18 49.9359 175.62 50.1546 175.193 50.5919C174.767 51.0186 174.553 51.6799 174.553 52.5759V56.8159H173.161V48.8159H174.553V49.9679C175.119 49.0613 175.983 48.6079 177.145 48.6079ZM190.544 50.1599H188.416V54.4959C188.416 54.8906 188.491 55.1733 188.64 55.3439C188.8 55.5039 189.04 55.5893 189.36 55.5999C189.68 55.5999 190.075 55.5893 190.544 55.5679V56.8159C189.328 56.9759 188.438 56.8799 187.872 56.5279C187.307 56.1653 187.024 55.4879 187.024 54.4959V50.1599H185.44V48.8159H187.024V46.9919L188.416 46.5759V48.8159H190.544V50.1599ZM198.538 55.8079C197.717 56.6186 196.72 57.0239 195.546 57.0239C194.373 57.0239 193.376 56.6186 192.554 55.8079C191.744 54.9973 191.338 53.9999 191.338 52.8159C191.338 51.6319 191.744 50.6346 192.554 49.8239C193.376 49.0133 194.373 48.6079 195.546 48.6079C196.72 48.6079 197.717 49.0133 198.538 49.8239C199.36 50.6346 199.77 51.6319 199.77 52.8159C199.77 53.9999 199.36 54.9973 198.538 55.8079ZM195.546 55.6639C196.346 55.6639 197.018 55.3919 197.562 54.8479C198.106 54.3039 198.378 53.6266 198.378 52.8159C198.378 52.0053 198.106 51.3279 197.562 50.7839C197.018 50.2399 196.346 49.9679 195.546 49.9679C194.757 49.9679 194.09 50.2399 193.546 50.7839C193.002 51.3279 192.73 52.0053 192.73 52.8159C192.73 53.6266 193.002 54.3039 193.546 54.8479C194.09 55.3919 194.757 55.6639 195.546 55.6639ZM206.611 50.9759C206.611 51.2853 206.766 51.5359 207.075 51.7279C207.385 51.9093 207.758 52.0586 208.195 52.1759C208.633 52.2826 209.07 52.4106 209.507 52.5599C209.945 52.6986 210.318 52.9439 210.627 53.2959C210.937 53.6373 211.091 54.0799 211.091 54.6239C211.091 55.3493 210.809 55.9306 210.243 56.3679C209.689 56.8053 208.974 57.0239 208.099 57.0239C207.321 57.0239 206.654 56.8533 206.099 56.5119C205.545 56.1706 205.15 55.7173 204.915 55.1519L206.115 54.4639C206.243 54.8479 206.483 55.1519 206.835 55.3759C207.187 55.5999 207.609 55.7119 208.099 55.7119C208.558 55.7119 208.937 55.6266 209.235 55.4559C209.534 55.2746 209.683 54.9973 209.683 54.6239C209.683 54.3146 209.529 54.0693 209.219 53.8879C208.91 53.6959 208.537 53.5466 208.099 53.4399C207.662 53.3226 207.225 53.1893 206.787 53.0399C206.35 52.8906 205.977 52.6453 205.667 52.3039C205.358 51.9626 205.203 51.5253 205.203 50.9919C205.203 50.2986 205.47 49.7279 206.003 49.2799C206.547 48.8319 207.225 48.6079 208.035 48.6079C208.686 48.6079 209.262 48.7573 209.763 49.0559C210.275 49.3439 210.659 49.7493 210.915 50.2719L209.747 50.9279C209.459 50.2453 208.889 49.9039 208.035 49.9039C207.641 49.9039 207.305 49.9999 207.027 50.1919C206.75 50.3733 206.611 50.6346 206.611 50.9759ZM216.779 50.1599H214.651V54.4959C214.651 54.8906 214.726 55.1733 214.875 55.3439C215.035 55.5039 215.275 55.5893 215.595 55.5999C215.915 55.5999 216.31 55.5893 216.779 55.5679V56.8159C215.563 56.9759 214.672 56.8799 214.107 56.5279C213.542 56.1653 213.259 55.4879 213.259 54.4959V50.1599H211.675V48.8159H213.259V46.9919L214.651 46.5759V48.8159H216.779V50.1599ZM224.645 48.8159H226.037V56.8159H224.645V55.4399C223.951 56.4959 222.943 57.0239 221.621 57.0239C220.501 57.0239 219.546 56.6186 218.757 55.8079C217.967 54.9866 217.573 53.9893 217.573 52.8159C217.573 51.6426 217.967 50.6506 218.757 49.8399C219.546 49.0186 220.501 48.6079 221.621 48.6079C222.943 48.6079 223.951 49.1359 224.645 50.1919V48.8159ZM221.797 55.6799C222.607 55.6799 223.285 55.4079 223.829 54.8639C224.373 54.3093 224.645 53.6266 224.645 52.8159C224.645 52.0053 224.373 51.3279 223.829 50.7839C223.285 50.2293 222.607 49.9519 221.797 49.9519C220.997 49.9519 220.325 50.2293 219.781 50.7839C219.237 51.3279 218.965 52.0053 218.965 52.8159C218.965 53.6266 219.237 54.3093 219.781 54.8639C220.325 55.4079 220.997 55.6799 221.797 55.6799ZM233.73 48.8159H235.218L231.954 57.3119C231.612 58.2186 231.132 58.9066 230.514 59.3759C229.906 59.8559 229.202 60.0693 228.402 60.0159V58.7199C229.383 58.7946 230.103 58.2506 230.562 57.0879L230.706 56.7839L227.218 48.8159H228.706L231.426 55.0879L233.73 48.8159ZM241.084 47.3599C240.817 47.3599 240.593 47.2693 240.412 47.0879C240.231 46.9066 240.14 46.6879 240.14 46.4319C240.14 46.1759 240.231 45.9573 240.412 45.7759C240.593 45.5839 240.817 45.4879 241.084 45.4879C241.34 45.4879 241.559 45.5839 241.74 45.7759C241.921 45.9573 242.012 46.1759 242.012 46.4319C242.012 46.6879 241.921 46.9066 241.74 47.0879C241.559 47.2693 241.34 47.3599 241.084 47.3599ZM240.38 56.8159V48.8159H241.772V56.8159H240.38ZM247.88 48.6079C248.818 48.6079 249.57 48.9066 250.136 49.5039C250.701 50.0906 250.984 50.8906 250.984 51.9039V56.8159H249.592V51.9839C249.592 51.3333 249.416 50.8319 249.064 50.4799C248.712 50.1173 248.226 49.9359 247.608 49.9359C246.914 49.9359 246.354 50.1546 245.928 50.5919C245.501 51.0186 245.288 51.6799 245.288 52.5759V56.8159H243.896V48.8159H245.288V49.9679C245.853 49.0613 246.717 48.6079 247.88 48.6079ZM261.279 50.1599H259.151V54.4959C259.151 54.8906 259.226 55.1733 259.375 55.3439C259.535 55.5039 259.775 55.5893 260.095 55.5999C260.415 55.5999 260.81 55.5893 261.279 55.5679V56.8159C260.063 56.9759 259.172 56.8799 258.607 56.5279C258.042 56.1653 257.759 55.4879 257.759 54.4959V50.1599H256.175V48.8159H257.759V46.9919L259.151 46.5759V48.8159H261.279V50.1599ZM268.494 48.8159H269.886V56.8159H268.494V55.6639C267.928 56.5706 267.064 57.0239 265.902 57.0239C264.963 57.0239 264.211 56.7306 263.646 56.1439C263.08 55.5466 262.798 54.7413 262.798 53.7279V48.8159H264.19V53.6479C264.19 54.2986 264.366 54.8053 264.718 55.1679C265.07 55.5199 265.555 55.6959 266.174 55.6959C266.867 55.6959 267.427 55.4826 267.854 55.0559C268.28 54.6186 268.494 53.9519 268.494 53.0559V48.8159ZM275.989 48.6079C276.928 48.6079 277.68 48.9066 278.245 49.5039C278.81 50.0906 279.093 50.8906 279.093 51.9039V56.8159H277.701V51.9839C277.701 51.3333 277.525 50.8319 277.173 50.4799C276.821 50.1173 276.336 49.9359 275.717 49.9359C275.024 49.9359 274.464 50.1546 274.037 50.5919C273.61 51.0186 273.397 51.6799 273.397 52.5759V56.8159H272.005V48.8159H273.397V49.9679C273.962 49.0613 274.826 48.6079 275.989 48.6079ZM282.012 53.4559C282.151 54.1706 282.476 54.7253 282.988 55.1199C283.511 55.5146 284.151 55.7119 284.908 55.7119C285.964 55.7119 286.732 55.3226 287.212 54.5439L288.396 55.2159C287.618 56.4213 286.444 57.0239 284.876 57.0239C283.607 57.0239 282.572 56.6293 281.772 55.8399C280.983 55.0399 280.588 54.0319 280.588 52.8159C280.588 51.6106 280.978 50.6079 281.756 49.8079C282.535 49.0079 283.543 48.6079 284.78 48.6079C285.954 48.6079 286.908 49.0239 287.644 49.8559C288.391 50.6773 288.764 51.6693 288.764 52.8319C288.764 53.0346 288.748 53.2426 288.716 53.4559H282.012ZM284.78 49.9199C284.034 49.9199 283.415 50.1333 282.924 50.5599C282.434 50.9759 282.13 51.5359 282.012 52.2399H287.356C287.239 51.4826 286.94 50.9066 286.46 50.5119C285.98 50.1173 285.42 49.9199 284.78 49.9199ZM303.788 48.8159H305.244L302.764 56.8159H301.34L299.468 50.8959L297.596 56.8159H296.172L293.692 48.8159H295.148L296.908 54.8959L298.796 48.8159H300.14L302.028 54.9119L303.788 48.8159ZM307.381 47.3599C307.114 47.3599 306.89 47.2693 306.709 47.0879C306.528 46.9066 306.437 46.6879 306.437 46.4319C306.437 46.1759 306.528 45.9573 306.709 45.7759C306.89 45.5839 307.114 45.4879 307.381 45.4879C307.637 45.4879 307.856 45.5839 308.037 45.7759C308.218 45.9573 308.309 46.1759 308.309 46.4319C308.309 46.6879 308.218 46.9066 308.037 47.0879C307.856 47.2693 307.637 47.3599 307.381 47.3599ZM306.677 56.8159V48.8159H308.069V56.8159H306.677ZM314.544 50.1599H312.416V54.4959C312.416 54.8906 312.491 55.1733 312.64 55.3439C312.8 55.5039 313.04 55.5893 313.36 55.5999C313.68 55.5999 314.075 55.5893 314.544 55.5679V56.8159C313.328 56.9759 312.438 56.8799 311.872 56.5279C311.307 56.1653 311.024 55.4879 311.024 54.4959V50.1599H309.44V48.8159H311.024V46.9919L312.416 46.5759V48.8159H314.544V50.1599ZM320.176 48.6079C321.115 48.6079 321.867 48.9066 322.432 49.5039C322.998 50.0906 323.28 50.8906 323.28 51.9039V56.8159H321.888V51.9839C321.888 51.3333 321.712 50.8319 321.36 50.4799C321.008 50.1173 320.523 49.9359 319.904 49.9359C319.211 49.9359 318.651 50.1546 318.224 50.5919C317.798 51.0186 317.584 51.6799 317.584 52.5759V56.8159H316.192V45.6159H317.584V49.9679C318.15 49.0613 319.014 48.6079 320.176 48.6079ZM61.593 69.8159H63.049L60.569 77.8159H59.145L57.273 71.8959L55.401 77.8159H53.977L51.497 69.8159H52.953L54.713 75.8959L56.601 69.8159H57.945L59.833 75.9119L61.593 69.8159ZM68.4655 69.6079C69.4042 69.6079 70.1562 69.9066 70.7215 70.5039C71.2869 71.0906 71.5695 71.8906 71.5695 72.9039V77.8159H70.1775V72.9839C70.1775 72.3333 70.0015 71.8319 69.6495 71.4799C69.2975 71.1173 68.8122 70.9359 68.1935 70.9359C67.5002 70.9359 66.9402 71.1546 66.5135 71.5919C66.0869 72.0186 65.8735 72.6799 65.8735 73.5759V77.8159H64.4815V66.6159H65.8735V70.9679C66.4389 70.0613 67.3029 69.6079 68.4655 69.6079ZM80.1368 69.8159H81.5288V77.8159H80.1368V76.4399C79.4435 77.4959 78.4355 78.0239 77.1128 78.0239C75.9928 78.0239 75.0381 77.6186 74.2488 76.8079C73.4595 75.9866 73.0648 74.9893 73.0648 73.8159C73.0648 72.6426 73.4595 71.6506 74.2488 70.8399C75.0381 70.0186 75.9928 69.6079 77.1128 69.6079C78.4355 69.6079 79.4435 70.1359 80.1368 71.1919V69.8159ZM77.2888 76.6799C78.0995 76.6799 78.7768 76.4079 79.3208 75.8639C79.8648 75.3093 80.1368 74.6266 80.1368 73.8159C80.1368 73.0053 79.8648 72.3279 79.3208 71.7839C78.7768 71.2293 78.0995 70.9519 77.2888 70.9519C76.4888 70.9519 75.8168 71.2293 75.2728 71.7839C74.7288 72.3279 74.4568 73.0053 74.4568 73.8159C74.4568 74.6266 74.7288 75.3093 75.2728 75.8639C75.8168 76.4079 76.4888 76.6799 77.2888 76.6799ZM87.9898 71.1599H85.8618V75.4959C85.8618 75.8906 85.9365 76.1733 86.0858 76.3439C86.2458 76.5039 86.4858 76.5893 86.8058 76.5999C87.1258 76.5999 87.5205 76.5893 87.9898 76.5679V77.8159C86.7738 77.9759 85.8831 77.8799 85.3178 77.5279C84.7525 77.1653 84.4698 76.4879 84.4698 75.4959V71.1599H82.8858V69.8159H84.4698V67.9919L85.8618 67.5759V69.8159H87.9898V71.1599ZM91.9365 66.5999L90.8965 70.4879H89.6965L90.3365 66.5999H91.9365ZM93.8222 71.9759C93.8222 72.2853 93.9768 72.5359 94.2862 72.7279C94.5955 72.9093 94.9688 73.0586 95.4062 73.1759C95.8435 73.2826 96.2808 73.4106 96.7182 73.5599C97.1555 73.6986 97.5288 73.9439 97.8382 74.2959C98.1475 74.6373 98.3022 75.0799 98.3022 75.6239C98.3022 76.3493 98.0195 76.9306 97.4542 77.3679C96.8995 77.8053 96.1848 78.0239 95.3102 78.0239C94.5315 78.0239 93.8648 77.8533 93.3102 77.5119C92.7555 77.1706 92.3608 76.7173 92.1262 76.1519L93.3262 75.4639C93.4542 75.8479 93.6942 76.1519 94.0462 76.3759C94.3982 76.5999 94.8195 76.7119 95.3102 76.7119C95.7688 76.7119 96.1475 76.6266 96.4462 76.4559C96.7448 76.2746 96.8942 75.9973 96.8942 75.6239C96.8942 75.3146 96.7395 75.0693 96.4302 74.8879C96.1208 74.6959 95.7475 74.5466 95.3102 74.4399C94.8728 74.3226 94.4355 74.1893 93.9982 74.0399C93.5608 73.8906 93.1875 73.6453 92.8782 73.3039C92.5688 72.9626 92.4142 72.5253 92.4142 71.9919C92.4142 71.2986 92.6808 70.7279 93.2142 70.2799C93.7582 69.8319 94.4355 69.6079 95.2462 69.6079C95.8968 69.6079 96.4728 69.7573 96.9742 70.0559C97.4862 70.3439 97.8702 70.7493 98.1262 71.2719L96.9582 71.9279C96.6702 71.2453 96.0995 70.9039 95.2462 70.9039C94.8515 70.9039 94.5155 70.9999 94.2382 71.1919C93.9608 71.3733 93.8222 71.6346 93.8222 71.9759ZM107.934 69.6079C108.873 69.6079 109.625 69.9066 110.19 70.5039C110.756 71.0906 111.038 71.8906 111.038 72.9039V77.8159H109.646V72.9839C109.646 72.3333 109.47 71.8319 109.118 71.4799C108.766 71.1173 108.281 70.9359 107.662 70.9359C106.969 70.9359 106.409 71.1546 105.982 71.5919C105.556 72.0186 105.342 72.6799 105.342 73.5759V77.8159H103.95V66.6159H105.342V70.9679C105.908 70.0613 106.772 69.6079 107.934 69.6079ZM119.606 69.8159H120.998V77.8159H119.606V76.4399C118.912 77.4959 117.904 78.0239 116.582 78.0239C115.462 78.0239 114.507 77.6186 113.718 76.8079C112.928 75.9866 112.534 74.9893 112.534 73.8159C112.534 72.6426 112.928 71.6506 113.718 70.8399C114.507 70.0186 115.462 69.6079 116.582 69.6079C117.904 69.6079 118.912 70.1359 119.606 71.1919V69.8159ZM116.758 76.6799C117.568 76.6799 118.246 76.4079 118.79 75.8639C119.334 75.3093 119.606 74.6266 119.606 73.8159C119.606 73.0053 119.334 72.3279 118.79 71.7839C118.246 71.2293 117.568 70.9519 116.758 70.9519C115.958 70.9519 115.286 71.2293 114.742 71.7839C114.198 72.3279 113.926 73.0053 113.926 73.8159C113.926 74.6266 114.198 75.3093 114.742 75.8639C115.286 76.4079 115.958 76.6799 116.758 76.6799ZM127.523 69.6079C128.643 69.6079 129.597 70.0186 130.387 70.8399C131.176 71.6506 131.571 72.6426 131.571 73.8159C131.571 74.9893 131.176 75.9866 130.387 76.8079C129.597 77.6186 128.643 78.0239 127.523 78.0239C126.2 78.0239 125.192 77.4959 124.499 76.4399V81.0159H123.107V69.8159H124.499V71.1919C125.192 70.1359 126.2 69.6079 127.523 69.6079ZM127.347 76.6799C128.147 76.6799 128.819 76.4079 129.363 75.8639C129.907 75.3093 130.179 74.6266 130.179 73.8159C130.179 73.0053 129.907 72.3279 129.363 71.7839C128.819 71.2293 128.147 70.9519 127.347 70.9519C126.536 70.9519 125.859 71.2293 125.315 71.7839C124.771 72.3279 124.499 73.0053 124.499 73.8159C124.499 74.6266 124.771 75.3093 125.315 75.8639C125.859 76.4079 126.536 76.6799 127.347 76.6799ZM137.648 69.6079C138.768 69.6079 139.722 70.0186 140.512 70.8399C141.301 71.6506 141.696 72.6426 141.696 73.8159C141.696 74.9893 141.301 75.9866 140.512 76.8079C139.722 77.6186 138.768 78.0239 137.648 78.0239C136.325 78.0239 135.317 77.4959 134.624 76.4399V81.0159H133.232V69.8159H134.624V71.1919C135.317 70.1359 136.325 69.6079 137.648 69.6079ZM137.472 76.6799C138.272 76.6799 138.944 76.4079 139.488 75.8639C140.032 75.3093 140.304 74.6266 140.304 73.8159C140.304 73.0053 140.032 72.3279 139.488 71.7839C138.944 71.2293 138.272 70.9519 137.472 70.9519C136.661 70.9519 135.984 71.2293 135.44 71.7839C134.896 72.3279 134.624 73.0053 134.624 73.8159C134.624 74.6266 134.896 75.3093 135.44 75.8639C135.984 76.4079 136.661 76.6799 137.472 76.6799ZM144.333 74.4559C144.471 75.1706 144.797 75.7253 145.309 76.1199C145.831 76.5146 146.471 76.7119 147.229 76.7119C148.285 76.7119 149.053 76.3226 149.533 75.5439L150.717 76.2159C149.938 77.4213 148.765 78.0239 147.197 78.0239C145.927 78.0239 144.893 77.6293 144.093 76.8399C143.303 76.0399 142.909 75.0319 142.909 73.8159C142.909 72.6106 143.298 71.6079 144.077 70.8079C144.855 70.0079 145.863 69.6079 147.101 69.6079C148.274 69.6079 149.229 70.0239 149.965 70.8559C150.711 71.6773 151.085 72.6693 151.085 73.8319C151.085 74.0346 151.069 74.2426 151.037 74.4559H144.333ZM147.101 70.9199C146.354 70.9199 145.735 71.1333 145.245 71.5599C144.754 71.9759 144.45 72.5359 144.333 73.2399H149.677C149.559 72.4826 149.261 71.9066 148.781 71.5119C148.301 71.1173 147.741 70.9199 147.101 70.9199ZM156.669 69.6079C157.607 69.6079 158.359 69.9066 158.925 70.5039C159.49 71.0906 159.773 71.8906 159.773 72.9039V77.8159H158.381V72.9839C158.381 72.3333 158.205 71.8319 157.853 71.4799C157.501 71.1173 157.015 70.9359 156.397 70.9359C155.703 70.9359 155.143 71.1546 154.717 71.5919C154.29 72.0186 154.077 72.6799 154.077 73.5759V77.8159H152.685V69.8159H154.077V70.9679C154.642 70.0613 155.506 69.6079 156.669 69.6079ZM162.42 68.3599C162.153 68.3599 161.929 68.2693 161.748 68.0879C161.567 67.9066 161.476 67.6879 161.476 67.4319C161.476 67.1759 161.567 66.9573 161.748 66.7759C161.929 66.5839 162.153 66.4879 162.42 66.4879C162.676 66.4879 162.895 66.5839 163.076 66.7759C163.257 66.9573 163.348 67.1759 163.348 67.4319C163.348 67.6879 163.257 67.9066 163.076 68.0879C162.895 68.2693 162.676 68.3599 162.42 68.3599ZM161.716 77.8159V69.8159H163.108V77.8159H161.716ZM169.216 69.6079C170.154 69.6079 170.906 69.9066 171.472 70.5039C172.037 71.0906 172.32 71.8906 172.32 72.9039V77.8159H170.928V72.9839C170.928 72.3333 170.752 71.8319 170.4 71.4799C170.048 71.1173 169.562 70.9359 168.944 70.9359C168.25 70.9359 167.69 71.1546 167.264 71.5919C166.837 72.0186 166.624 72.6799 166.624 73.5759V77.8159H165.232V69.8159H166.624V70.9679C167.189 70.0613 168.053 69.6079 169.216 69.6079ZM180.903 69.8159H182.279V77.4799C182.279 78.6639 181.879 79.5813 181.079 80.2319C180.279 80.8933 179.319 81.2239 178.199 81.2239C177.303 81.2239 176.529 81.0533 175.879 80.7119C175.228 80.3813 174.737 79.9013 174.407 79.2719L175.623 78.5839C176.06 79.4799 176.929 79.9279 178.231 79.9279C179.063 79.9279 179.713 79.7093 180.183 79.2719C180.663 78.8346 180.903 78.2373 180.903 77.4799V76.3439C180.199 77.4106 179.196 77.9439 177.895 77.9439C176.753 77.9439 175.788 77.5386 174.999 76.7279C174.209 75.9173 173.815 74.9306 173.815 73.7679C173.815 72.6053 174.209 71.6239 174.999 70.8239C175.788 70.0133 176.753 69.6079 177.895 69.6079C179.207 69.6079 180.209 70.1359 180.903 71.1919V69.8159ZM176.023 75.7999C176.567 76.3439 177.244 76.6159 178.055 76.6159C178.865 76.6159 179.543 76.3439 180.087 75.7999C180.631 75.2559 180.903 74.5786 180.903 73.7679C180.903 72.9679 180.631 72.2959 180.087 71.7519C179.543 71.2079 178.865 70.9359 178.055 70.9359C177.244 70.9359 176.567 71.2079 176.023 71.7519C175.479 72.2959 175.207 72.9679 175.207 73.7679C175.207 74.5786 175.479 75.2559 176.023 75.7999ZM189.092 68.3599C188.825 68.3599 188.601 68.2693 188.42 68.0879C188.238 67.9066 188.148 67.6879 188.148 67.4319C188.148 67.1759 188.238 66.9573 188.42 66.7759C188.601 66.5839 188.825 66.4879 189.092 66.4879C189.348 66.4879 189.566 66.5839 189.748 66.7759C189.929 66.9573 190.02 67.1759 190.02 67.4319C190.02 67.6879 189.929 67.9066 189.748 68.0879C189.566 68.2693 189.348 68.3599 189.092 68.3599ZM188.388 77.8159V69.8159H189.78V77.8159H188.388ZM195.887 69.6079C196.826 69.6079 197.578 69.9066 198.143 70.5039C198.709 71.0906 198.991 71.8906 198.991 72.9039V77.8159H197.599V72.9839C197.599 72.3333 197.423 71.8319 197.071 71.4799C196.719 71.1173 196.234 70.9359 195.615 70.9359C194.922 70.9359 194.362 71.1546 193.935 71.5919C193.509 72.0186 193.295 72.6799 193.295 73.5759V77.8159H191.903V69.8159H193.295V70.9679C193.861 70.0613 194.725 69.6079 195.887 69.6079ZM210.519 69.8159H212.007L208.743 78.3119C208.401 79.2186 207.921 79.9066 207.303 80.3759C206.695 80.8559 205.991 81.0693 205.191 81.0159V79.7199C206.172 79.7946 206.892 79.2506 207.351 78.0879L207.495 77.7839L204.007 69.8159H205.495L208.215 76.0879L210.519 69.8159ZM219.609 76.8079C218.787 77.6186 217.79 78.0239 216.617 78.0239C215.443 78.0239 214.446 77.6186 213.625 76.8079C212.814 75.9973 212.409 74.9999 212.409 73.8159C212.409 72.6319 212.814 71.6346 213.625 70.8239C214.446 70.0133 215.443 69.6079 216.617 69.6079C217.79 69.6079 218.787 70.0133 219.609 70.8239C220.43 71.6346 220.841 72.6319 220.841 73.8159C220.841 74.9999 220.43 75.9973 219.609 76.8079ZM216.617 76.6639C217.417 76.6639 218.089 76.3919 218.633 75.8479C219.177 75.3039 219.449 74.6266 219.449 73.8159C219.449 73.0053 219.177 72.3279 218.633 71.7839C218.089 71.2399 217.417 70.9679 216.617 70.9679C215.827 70.9679 215.161 71.2399 214.617 71.7839C214.073 72.3279 213.801 73.0053 213.801 73.8159C213.801 74.6266 214.073 75.3039 214.617 75.8479C215.161 76.3919 215.827 76.6639 216.617 76.6639ZM228.002 69.8159H229.394V77.8159H228.002V76.6639C227.436 77.5706 226.572 78.0239 225.41 78.0239C224.471 78.0239 223.719 77.7306 223.154 77.1439C222.588 76.5466 222.306 75.7413 222.306 74.7279V69.8159H223.698V74.6479C223.698 75.2986 223.874 75.8053 224.226 76.1679C224.578 76.5199 225.063 76.6959 225.682 76.6959C226.375 76.6959 226.935 76.4826 227.362 76.0559C227.788 75.6186 228.002 74.9519 228.002 74.0559V69.8159ZM232.905 71.1599C233.363 70.1679 234.195 69.6719 235.401 69.6719V71.1279C234.718 71.0959 234.131 71.2773 233.641 71.6719C233.15 72.0666 232.905 72.7013 232.905 73.5759V77.8159H231.513V69.8159H232.905V71.1599ZM247.387 69.8159H248.779V77.8159H247.387V76.4399C246.693 77.4959 245.685 78.0239 244.363 78.0239C243.243 78.0239 242.288 77.6186 241.499 76.8079C240.709 75.9866 240.315 74.9893 240.315 73.8159C240.315 72.6426 240.709 71.6506 241.499 70.8399C242.288 70.0186 243.243 69.6079 244.363 69.6079C245.685 69.6079 246.693 70.1359 247.387 71.1919V69.8159ZM244.539 76.6799C245.349 76.6799 246.027 76.4079 246.571 75.8639C247.115 75.3093 247.387 74.6266 247.387 73.8159C247.387 73.0053 247.115 72.3279 246.571 71.7839C246.027 71.2293 245.349 70.9519 244.539 70.9519C243.739 70.9519 243.067 71.2293 242.523 71.7839C241.979 72.3279 241.707 73.0053 241.707 73.8159C241.707 74.6266 241.979 75.3093 242.523 75.8639C243.067 76.4079 243.739 76.6799 244.539 76.6799ZM252.28 71.1599C252.738 70.1679 253.57 69.6719 254.776 69.6719V71.1279C254.093 71.0959 253.506 71.2773 253.016 71.6719C252.525 72.0666 252.28 72.7013 252.28 73.5759V77.8159H250.888V69.8159H252.28V71.1599ZM256.676 74.4559C256.815 75.1706 257.14 75.7253 257.652 76.1199C258.175 76.5146 258.815 76.7119 259.572 76.7119C260.628 76.7119 261.396 76.3226 261.876 75.5439L263.06 76.2159C262.282 77.4213 261.108 78.0239 259.54 78.0239C258.271 78.0239 257.236 77.6293 256.436 76.8399C255.647 76.0399 255.252 75.0319 255.252 73.8159C255.252 72.6106 255.642 71.6079 256.42 70.8079C257.199 70.0079 258.207 69.6079 259.444 69.6079C260.618 69.6079 261.572 70.0239 262.308 70.8559C263.055 71.6773 263.428 72.6693 263.428 73.8319C263.428 74.0346 263.412 74.2426 263.38 74.4559H256.676ZM259.444 70.9199C258.698 70.9199 258.079 71.1333 257.588 71.5599C257.098 71.9759 256.794 72.5359 256.676 73.2399H262.02C261.903 72.4826 261.604 71.9066 261.124 71.5119C260.644 71.1173 260.084 70.9199 259.444 70.9199ZM271.637 69.8159H273.029V77.8159H271.637V76.4399C270.943 77.4959 269.935 78.0239 268.613 78.0239C267.493 78.0239 266.538 77.6186 265.749 76.8079C264.959 75.9866 264.565 74.9893 264.565 73.8159C264.565 72.6426 264.959 71.6506 265.749 70.8399C266.538 70.0186 267.493 69.6079 268.613 69.6079C269.935 69.6079 270.943 70.1359 271.637 71.1919V69.8159ZM268.789 76.6799C269.599 76.6799 270.277 76.4079 270.821 75.8639C271.365 75.3093 271.637 74.6266 271.637 73.8159C271.637 73.0053 271.365 72.3279 270.821 71.7839C270.277 71.2293 269.599 70.9519 268.789 70.9519C267.989 70.9519 267.317 71.2293 266.773 71.7839C266.229 72.3279 265.957 73.0053 265.957 73.8159C265.957 74.6266 266.229 75.3093 266.773 75.8639C267.317 76.4079 267.989 76.6799 268.789 76.6799Z" fill="#7C7C7C"/>
</svg>
