<svg width="295" height="16" viewBox="0 0 295 16" fill="none" xmlns="http://www.w3.org/2000/svg">
<path d="M11.6813 6.89356V7.56556C11.6813 9.02689 11.1799 10.2429 10.1773 11.2136C9.17461 12.1736 7.84661 12.6536 6.19327 12.6536C4.48661 12.6536 3.07327 12.0936 1.95327 10.9736C0.843941 9.84289 0.289274 8.46689 0.289274 6.84556C0.289274 5.22422 0.843941 3.85356 1.95327 2.73356C3.07327 1.60289 4.47594 1.03756 6.16127 1.03756C7.19594 1.03756 8.14527 1.28822 9.00927 1.78956C9.87327 2.28022 10.5399 2.93089 11.0093 3.74156L9.72927 4.49356C9.40928 3.88556 8.92394 3.40022 8.27327 3.03756C7.63327 2.66422 6.92394 2.47756 6.14527 2.47756C4.86527 2.47756 3.81461 2.89889 2.99327 3.74156C2.17194 4.57356 1.76127 5.60822 1.76127 6.84556C1.76127 8.08289 2.17194 9.11756 2.99327 9.94956C3.82527 10.7816 4.89727 11.1976 6.20927 11.1976C7.32927 11.1976 8.23594 10.9256 8.92927 10.3816C9.62261 9.82689 10.0439 9.11222 10.1933 8.23756H6.08127V6.89356H11.6813ZM14.3226 9.08556C14.4613 9.80022 14.7866 10.3549 15.2986 10.7496C15.8213 11.1442 16.4613 11.3416 17.2186 11.3416C18.2746 11.3416 19.0426 10.9522 19.5226 10.1736L20.7066 10.8456C19.928 12.0509 18.7546 12.6536 17.1866 12.6536C15.9173 12.6536 14.8826 12.2589 14.0826 11.4696C13.2933 10.6696 12.8986 9.66156 12.8986 8.44556C12.8986 7.24022 13.288 6.23756 14.0666 5.43756C14.8453 4.63756 15.8533 4.23756 17.0906 4.23756C18.264 4.23756 19.2186 4.65356 19.9546 5.48556C20.7013 6.30689 21.0746 7.29889 21.0746 8.46156C21.0746 8.66422 21.0586 8.87222 21.0266 9.08556H14.3226ZM17.0906 5.54956C16.344 5.54956 15.7253 5.76289 15.2346 6.18956C14.744 6.60556 14.44 7.16556 14.3226 7.86956H19.6666C19.5493 7.11222 19.2506 6.53622 18.7706 6.14156C18.2906 5.74689 17.7306 5.54956 17.0906 5.54956ZM24.0668 5.78956C24.5254 4.79756 25.3574 4.30156 26.5628 4.30156V5.75756C25.8801 5.72556 25.2934 5.90689 24.8028 6.30156C24.3121 6.69622 24.0668 7.33089 24.0668 8.20556V12.4456H22.6748V4.44556H24.0668V5.78956ZM37.5088 4.44556H38.9968L35.7328 12.9416C35.3914 13.8482 34.9114 14.5362 34.2928 15.0056C33.6848 15.4856 32.9808 15.6989 32.1808 15.6456V14.3496C33.1621 14.4242 33.8821 13.8802 34.3408 12.7176L34.4848 12.4136L30.9968 4.44556H32.4848L35.2048 10.7176L37.5088 4.44556ZM46.5986 11.4376C45.7773 12.2482 44.78 12.6536 43.6066 12.6536C42.4333 12.6536 41.436 12.2482 40.6146 11.4376C39.804 10.6269 39.3986 9.62956 39.3986 8.44556C39.3986 7.26156 39.804 6.26422 40.6146 5.45356C41.436 4.64289 42.4333 4.23756 43.6066 4.23756C44.78 4.23756 45.7773 4.64289 46.5986 5.45356C47.42 6.26422 47.8306 7.26156 47.8306 8.44556C47.8306 9.62956 47.42 10.6269 46.5986 11.4376ZM43.6066 11.2936C44.4066 11.2936 45.0786 11.0216 45.6226 10.4776C46.1666 9.93356 46.4386 9.25622 46.4386 8.44556C46.4386 7.63489 46.1666 6.95756 45.6226 6.41356C45.0786 5.86956 44.4066 5.59756 43.6066 5.59756C42.8173 5.59756 42.1506 5.86956 41.6066 6.41356C41.0626 6.95756 40.7906 7.63489 40.7906 8.44556C40.7906 9.25622 41.0626 9.93356 41.6066 10.4776C42.1506 11.0216 42.8173 11.2936 43.6066 11.2936ZM54.9916 4.44556H56.3836V12.4456H54.9916V11.2936C54.4263 12.2002 53.5623 12.6536 52.3996 12.6536C51.461 12.6536 50.709 12.3602 50.1436 11.7736C49.5783 11.1762 49.2956 10.3709 49.2956 9.35756V4.44556H50.6876V9.27756C50.6876 9.92822 50.8636 10.4349 51.2156 10.7976C51.5676 11.1496 52.053 11.3256 52.6716 11.3256C53.365 11.3256 53.925 11.1122 54.3516 10.6856C54.7783 10.2482 54.9916 9.58156 54.9916 8.68556V4.44556ZM59.8949 5.78956C60.3536 4.79756 61.1856 4.30156 62.3909 4.30156V5.75756C61.7082 5.72556 61.1216 5.90689 60.6309 6.30156C60.1402 6.69622 59.8949 7.33089 59.8949 8.20556V12.4456H58.5029V4.44556H59.8949V5.78956ZM74.3929 4.44556H75.7689V12.1096C75.7689 13.2936 75.3689 14.2109 74.5689 14.8616C73.7689 15.5229 72.8089 15.8536 71.6889 15.8536C70.7929 15.8536 70.0196 15.6829 69.3689 15.3416C68.7182 15.0109 68.2276 14.5309 67.8969 13.9016L69.1129 13.2136C69.5502 14.1096 70.4196 14.5576 71.7209 14.5576C72.5529 14.5576 73.2036 14.3389 73.6729 13.9016C74.1529 13.4642 74.3929 12.8669 74.3929 12.1096V10.9736C73.6889 12.0402 72.6862 12.5736 71.3849 12.5736C70.2436 12.5736 69.2782 12.1682 68.4889 11.3576C67.6996 10.5469 67.3049 9.56022 67.3049 8.39756C67.3049 7.23489 67.6996 6.25356 68.4889 5.45356C69.2782 4.64289 70.2436 4.23756 71.3849 4.23756C72.6969 4.23756 73.6996 4.76556 74.3929 5.82156V4.44556ZM69.5129 10.4296C70.0569 10.9736 70.7342 11.2456 71.5449 11.2456C72.3556 11.2456 73.0329 10.9736 73.5769 10.4296C74.1209 9.88556 74.3929 9.20822 74.3929 8.39756C74.3929 7.59756 74.1209 6.92556 73.5769 6.38156C73.0329 5.83756 72.3556 5.56556 71.5449 5.56556C70.7342 5.56556 70.0569 5.83756 69.5129 6.38156C68.9689 6.92556 68.6969 7.59756 68.6969 8.39756C68.6969 9.20822 68.9689 9.88556 69.5129 10.4296ZM79.2699 5.78956C79.7286 4.79756 80.5606 4.30156 81.7659 4.30156V5.75756C81.0832 5.72556 80.4966 5.90689 80.0059 6.30156C79.5152 6.69622 79.2699 7.33089 79.2699 8.20556V12.4456H77.8779V4.44556H79.2699V5.78956ZM89.4424 11.4376C88.6211 12.2482 87.6237 12.6536 86.4504 12.6536C85.2771 12.6536 84.2797 12.2482 83.4584 11.4376C82.6477 10.6269 82.2424 9.62956 82.2424 8.44556C82.2424 7.26156 82.6477 6.26422 83.4584 5.45356C84.2797 4.64289 85.2771 4.23756 86.4504 4.23756C87.6237 4.23756 88.6211 4.64289 89.4424 5.45356C90.2637 6.26422 90.6744 7.26156 90.6744 8.44556C90.6744 9.62956 90.2637 10.6269 89.4424 11.4376ZM86.4504 11.2936C87.2504 11.2936 87.9224 11.0216 88.4664 10.4776C89.0104 9.93356 89.2824 9.25622 89.2824 8.44556C89.2824 7.63489 89.0104 6.95756 88.4664 6.41356C87.9224 5.86956 87.2504 5.59756 86.4504 5.59756C85.6611 5.59756 84.9944 5.86956 84.4504 6.41356C83.9064 6.95756 83.6344 7.63489 83.6344 8.44556C83.6344 9.25622 83.9064 9.93356 84.4504 10.4776C84.9944 11.0216 85.6611 11.2936 86.4504 11.2936ZM96.0754 12.6536C94.8701 12.6536 93.8674 12.2536 93.0674 11.4536C92.2674 10.6429 91.8674 9.64022 91.8674 8.44556C91.8674 7.25089 92.2674 6.25356 93.0674 5.45356C93.8674 4.64289 94.8701 4.23756 96.0754 4.23756C96.8647 4.23756 97.5741 4.42956 98.2034 4.81356C98.8327 5.18689 99.3021 5.69356 99.6114 6.33356L98.4434 7.00556C98.2407 6.57889 97.9261 6.23756 97.4994 5.98156C97.0834 5.72556 96.6087 5.59756 96.0754 5.59756C95.2754 5.59756 94.6034 5.86956 94.0594 6.41356C93.5261 6.95756 93.2594 7.63489 93.2594 8.44556C93.2594 9.24556 93.5261 9.91756 94.0594 10.4616C94.6034 11.0056 95.2754 11.2776 96.0754 11.2776C96.6087 11.2776 97.0887 11.1549 97.5154 10.9096C97.9421 10.6536 98.2674 10.3122 98.4914 9.88556L99.6754 10.5736C99.3341 11.2029 98.8434 11.7096 98.2034 12.0936C97.5634 12.4669 96.8541 12.6536 96.0754 12.6536ZM101.916 9.08556C102.055 9.80022 102.38 10.3549 102.892 10.7496C103.415 11.1442 104.055 11.3416 104.812 11.3416C105.868 11.3416 106.636 10.9522 107.116 10.1736L108.3 10.8456C107.522 12.0509 106.348 12.6536 104.78 12.6536C103.511 12.6536 102.476 12.2589 101.676 11.4696C100.887 10.6696 100.492 9.66156 100.492 8.44556C100.492 7.24022 100.882 6.23756 101.66 5.43756C102.439 4.63756 103.447 4.23756 104.684 4.23756C105.858 4.23756 106.812 4.65356 107.548 5.48556C108.295 6.30689 108.668 7.29889 108.668 8.46156C108.668 8.66422 108.652 8.87222 108.62 9.08556H101.916ZM104.684 5.54956C103.938 5.54956 103.319 5.76289 102.828 6.18956C102.338 6.60556 102.034 7.16556 101.916 7.86956H107.26C107.143 7.11222 106.844 6.53622 106.364 6.14156C105.884 5.74689 105.324 5.54956 104.684 5.54956ZM111.661 5.78956C112.119 4.79756 112.951 4.30156 114.157 4.30156V5.75756C113.474 5.72556 112.887 5.90689 112.397 6.30156C111.906 6.69622 111.661 7.33089 111.661 8.20556V12.4456H110.269V4.44556H111.661V5.78956ZM116.223 2.98956C115.956 2.98956 115.732 2.89889 115.551 2.71756C115.369 2.53622 115.279 2.31756 115.279 2.06156C115.279 1.80556 115.369 1.58689 115.551 1.40556C115.732 1.21356 115.956 1.11756 116.223 1.11756C116.479 1.11756 116.697 1.21356 116.879 1.40556C117.06 1.58689 117.151 1.80556 117.151 2.06156C117.151 2.31756 117.06 2.53622 116.879 2.71756C116.697 2.89889 116.479 2.98956 116.223 2.98956ZM115.519 12.4456V4.44556H116.911V12.4456H115.519ZM120.01 9.08556C120.149 9.80022 120.474 10.3549 120.986 10.7496C121.509 11.1442 122.149 11.3416 122.906 11.3416C123.962 11.3416 124.73 10.9522 125.21 10.1736L126.394 10.8456C125.615 12.0509 124.442 12.6536 122.874 12.6536C121.605 12.6536 120.57 12.2589 119.77 11.4696C118.981 10.6696 118.586 9.66156 118.586 8.44556C118.586 7.24022 118.975 6.23756 119.754 5.43756C120.533 4.63756 121.541 4.23756 122.778 4.23756C123.951 4.23756 124.906 4.65356 125.642 5.48556C126.389 6.30689 126.762 7.29889 126.762 8.46156C126.762 8.66422 126.746 8.87222 126.714 9.08556H120.01ZM122.778 5.54956C122.031 5.54956 121.413 5.76289 120.922 6.18956C120.431 6.60556 120.127 7.16556 120.01 7.86956H125.354C125.237 7.11222 124.938 6.53622 124.458 6.14156C123.978 5.74689 123.418 5.54956 122.778 5.54956ZM129.25 6.60556C129.25 6.91489 129.404 7.16556 129.714 7.35756C130.023 7.53889 130.396 7.68822 130.834 7.80556C131.271 7.91222 131.708 8.04022 132.146 8.18956C132.583 8.32822 132.956 8.57356 133.266 8.92556C133.575 9.26689 133.73 9.70956 133.73 10.2536C133.73 10.9789 133.447 11.5602 132.882 11.9976C132.327 12.4349 131.612 12.6536 130.738 12.6536C129.959 12.6536 129.292 12.4829 128.738 12.1416C128.183 11.8002 127.788 11.3469 127.554 10.7816L128.754 10.0936C128.882 10.4776 129.122 10.7816 129.474 11.0056C129.826 11.2296 130.247 11.3416 130.738 11.3416C131.196 11.3416 131.575 11.2562 131.874 11.0856C132.172 10.9042 132.322 10.6269 132.322 10.2536C132.322 9.94422 132.167 9.69889 131.858 9.51756C131.548 9.32556 131.175 9.17622 130.738 9.06956C130.3 8.95222 129.863 8.81889 129.426 8.66956C128.988 8.52022 128.615 8.27489 128.306 7.93356C127.996 7.59222 127.842 7.15489 127.842 6.62156C127.842 5.92822 128.108 5.35756 128.642 4.90956C129.186 4.46156 129.863 4.23756 130.674 4.23756C131.324 4.23756 131.9 4.38689 132.402 4.68556C132.914 4.97356 133.298 5.37889 133.554 5.90156L132.386 6.55756C132.098 5.87489 131.527 5.53356 130.674 5.53356C130.279 5.53356 129.943 5.62956 129.666 5.82156C129.388 6.00289 129.25 6.26422 129.25 6.60556ZM140.082 2.98956C139.815 2.98956 139.591 2.89889 139.41 2.71756C139.229 2.53622 139.138 2.31756 139.138 2.06156C139.138 1.80556 139.229 1.58689 139.41 1.40556C139.591 1.21356 139.815 1.11756 140.082 1.11756C140.338 1.11756 140.557 1.21356 140.738 1.40556C140.919 1.58689 141.01 1.80556 141.01 2.06156C141.01 2.31756 140.919 2.53622 140.738 2.71756C140.557 2.89889 140.338 2.98956 140.082 2.98956ZM139.378 12.4456V4.44556H140.77V12.4456H139.378ZM146.878 4.23756C147.816 4.23756 148.568 4.53622 149.134 5.13356C149.699 5.72022 149.982 6.52022 149.982 7.53356V12.4456H148.59V7.61356C148.59 6.96289 148.414 6.46156 148.062 6.10956C147.71 5.74689 147.224 5.56556 146.606 5.56556C145.912 5.56556 145.352 5.78422 144.926 6.22156C144.499 6.64822 144.286 7.30956 144.286 8.20556V12.4456H142.894V4.44556H144.286V5.59756C144.851 4.69089 145.715 4.23756 146.878 4.23756ZM162.549 4.44556H163.941V12.4456H162.549V11.0696C161.855 12.1256 160.847 12.6536 159.525 12.6536C158.405 12.6536 157.45 12.2482 156.661 11.4376C155.871 10.6162 155.477 9.61889 155.477 8.44556C155.477 7.27222 155.871 6.28022 156.661 5.46956C157.45 4.64822 158.405 4.23756 159.525 4.23756C160.847 4.23756 161.855 4.76556 162.549 5.82156V4.44556ZM159.701 11.3096C160.511 11.3096 161.189 11.0376 161.733 10.4936C162.277 9.93889 162.549 9.25622 162.549 8.44556C162.549 7.63489 162.277 6.95756 161.733 6.41356C161.189 5.85889 160.511 5.58156 159.701 5.58156C158.901 5.58156 158.229 5.85889 157.685 6.41356C157.141 6.95756 156.869 7.63489 156.869 8.44556C156.869 9.25622 157.141 9.93889 157.685 10.4936C158.229 11.0376 158.901 11.3096 159.701 11.3096ZM167.234 6.60556C167.234 6.91489 167.389 7.16556 167.698 7.35756C168.007 7.53889 168.381 7.68822 168.818 7.80556C169.255 7.91222 169.693 8.04022 170.13 8.18956C170.567 8.32822 170.941 8.57356 171.25 8.92556C171.559 9.26689 171.714 9.70956 171.714 10.2536C171.714 10.9789 171.431 11.5602 170.866 11.9976C170.311 12.4349 169.597 12.6536 168.722 12.6536C167.943 12.6536 167.277 12.4829 166.722 12.1416C166.167 11.8002 165.773 11.3469 165.538 10.7816L166.738 10.0936C166.866 10.4776 167.106 10.7816 167.458 11.0056C167.81 11.2296 168.231 11.3416 168.722 11.3416C169.181 11.3416 169.559 11.2562 169.858 11.0856C170.157 10.9042 170.306 10.6269 170.306 10.2536C170.306 9.94422 170.151 9.69889 169.842 9.51756C169.533 9.32556 169.159 9.17622 168.722 9.06956C168.285 8.95222 167.847 8.81889 167.41 8.66956C166.973 8.52022 166.599 8.27489 166.29 7.93356C165.981 7.59222 165.826 7.15489 165.826 6.62156C165.826 5.92822 166.093 5.35756 166.626 4.90956C167.17 4.46156 167.847 4.23756 168.658 4.23756C169.309 4.23756 169.885 4.38689 170.386 4.68556C170.898 4.97356 171.282 5.37889 171.538 5.90156L170.37 6.55756C170.082 5.87489 169.511 5.53356 168.658 5.53356C168.263 5.53356 167.927 5.62956 167.65 5.82156C167.373 6.00289 167.234 6.26422 167.234 6.60556ZM181.474 2.38156C180.066 2.26422 179.362 2.87222 179.362 4.20556V4.44556H181.474V5.78956H179.362V12.4456H177.97V5.78956H176.69V4.44556H177.97V4.20556C177.97 3.12822 178.269 2.31222 178.866 1.75756C179.474 1.20289 180.344 0.962889 181.474 1.03756V2.38156ZM188.721 4.44556H190.113V12.4456H188.721V11.0696C188.027 12.1256 187.019 12.6536 185.697 12.6536C184.577 12.6536 183.622 12.2482 182.833 11.4376C182.043 10.6162 181.649 9.61889 181.649 8.44556C181.649 7.27222 182.043 6.28022 182.833 5.46956C183.622 4.64822 184.577 4.23756 185.697 4.23756C187.019 4.23756 188.027 4.76556 188.721 5.82156V4.44556ZM185.873 11.3096C186.683 11.3096 187.361 11.0376 187.905 10.4936C188.449 9.93889 188.721 9.25622 188.721 8.44556C188.721 7.63489 188.449 6.95756 187.905 6.41356C187.361 5.85889 186.683 5.58156 185.873 5.58156C185.073 5.58156 184.401 5.85889 183.857 6.41356C183.313 6.95756 183.041 7.63489 183.041 8.44556C183.041 9.25622 183.313 9.93889 183.857 10.4936C184.401 11.0376 185.073 11.3096 185.873 11.3096ZM193.406 6.60556C193.406 6.91489 193.561 7.16556 193.87 7.35756C194.179 7.53889 194.553 7.68822 194.99 7.80556C195.427 7.91222 195.865 8.04022 196.302 8.18956C196.739 8.32822 197.113 8.57356 197.422 8.92556C197.731 9.26689 197.886 9.70956 197.886 10.2536C197.886 10.9789 197.603 11.5602 197.038 11.9976C196.483 12.4349 195.769 12.6536 194.894 12.6536C194.115 12.6536 193.449 12.4829 192.894 12.1416C192.339 11.8002 191.945 11.3469 191.71 10.7816L192.91 10.0936C193.038 10.4776 193.278 10.7816 193.63 11.0056C193.982 11.2296 194.403 11.3416 194.894 11.3416C195.353 11.3416 195.731 11.2562 196.03 11.0856C196.329 10.9042 196.478 10.6269 196.478 10.2536C196.478 9.94422 196.323 9.69889 196.014 9.51756C195.705 9.32556 195.331 9.17622 194.894 9.06956C194.457 8.95222 194.019 8.81889 193.582 8.66956C193.145 8.52022 192.771 8.27489 192.462 7.93356C192.153 7.59222 191.998 7.15489 191.998 6.62156C191.998 5.92822 192.265 5.35756 192.798 4.90956C193.342 4.46156 194.019 4.23756 194.83 4.23756C195.481 4.23756 196.057 4.38689 196.558 4.68556C197.07 4.97356 197.454 5.37889 197.71 5.90156L196.542 6.55756C196.254 5.87489 195.683 5.53356 194.83 5.53356C194.435 5.53356 194.099 5.62956 193.822 5.82156C193.545 6.00289 193.406 6.26422 193.406 6.60556ZM203.574 5.78956H201.446V10.1256C201.446 10.5202 201.52 10.8029 201.67 10.9736C201.83 11.1336 202.07 11.2189 202.39 11.2296C202.71 11.2296 203.104 11.2189 203.574 11.1976V12.4456C202.358 12.6056 201.467 12.5096 200.902 12.1576C200.336 11.7949 200.054 11.1176 200.054 10.1256V5.78956H198.47V4.44556H200.054V2.62156L201.446 2.20556V4.44556H203.574V5.78956ZM215.893 4.44556H217.285V12.4456H215.893V11.0696C215.199 12.1256 214.191 12.6536 212.869 12.6536C211.749 12.6536 210.794 12.2482 210.005 11.4376C209.215 10.6162 208.821 9.61889 208.821 8.44556C208.821 7.27222 209.215 6.28022 210.005 5.46956C210.794 4.64822 211.749 4.23756 212.869 4.23756C214.191 4.23756 215.199 4.76556 215.893 5.82156V4.44556ZM213.045 11.3096C213.855 11.3096 214.533 11.0376 215.077 10.4936C215.621 9.93889 215.893 9.25622 215.893 8.44556C215.893 7.63489 215.621 6.95756 215.077 6.41356C214.533 5.85889 213.855 5.58156 213.045 5.58156C212.245 5.58156 211.573 5.85889 211.029 6.41356C210.485 6.95756 210.213 7.63489 210.213 8.44556C210.213 9.25622 210.485 9.93889 211.029 10.4936C211.573 11.0376 212.245 11.3096 213.045 11.3096ZM220.578 6.60556C220.578 6.91489 220.733 7.16556 221.042 7.35756C221.351 7.53889 221.725 7.68822 222.162 7.80556C222.599 7.91222 223.037 8.04022 223.474 8.18956C223.911 8.32822 224.285 8.57356 224.594 8.92556C224.903 9.26689 225.058 9.70956 225.058 10.2536C225.058 10.9789 224.775 11.5602 224.21 11.9976C223.655 12.4349 222.941 12.6536 222.066 12.6536C221.287 12.6536 220.621 12.4829 220.066 12.1416C219.511 11.8002 219.117 11.3469 218.882 10.7816L220.082 10.0936C220.21 10.4776 220.45 10.7816 220.802 11.0056C221.154 11.2296 221.575 11.3416 222.066 11.3416C222.525 11.3416 222.903 11.2562 223.202 11.0856C223.501 10.9042 223.65 10.6269 223.65 10.2536C223.65 9.94422 223.495 9.69889 223.186 9.51756C222.877 9.32556 222.503 9.17622 222.066 9.06956C221.629 8.95222 221.191 8.81889 220.754 8.66956C220.317 8.52022 219.943 8.27489 219.634 7.93356C219.325 7.59222 219.17 7.15489 219.17 6.62156C219.17 5.92822 219.437 5.35756 219.97 4.90956C220.514 4.46156 221.191 4.23756 222.002 4.23756C222.653 4.23756 223.229 4.38689 223.73 4.68556C224.242 4.97356 224.626 5.37889 224.882 5.90156L223.714 6.55756C223.426 5.87489 222.855 5.53356 222.002 5.53356C221.607 5.53356 221.271 5.62956 220.994 5.82156C220.717 6.00289 220.578 6.26422 220.578 6.60556ZM237.458 11.4376C236.637 12.2482 235.639 12.6536 234.466 12.6536C233.293 12.6536 232.295 12.2482 231.474 11.4376C230.663 10.6269 230.258 9.62956 230.258 8.44556C230.258 7.26156 230.663 6.26422 231.474 5.45356C232.295 4.64289 233.293 4.23756 234.466 4.23756C235.639 4.23756 236.637 4.64289 237.458 5.45356C238.279 6.26422 238.69 7.26156 238.69 8.44556C238.69 9.62956 238.279 10.6269 237.458 11.4376ZM234.466 11.2936C235.266 11.2936 235.938 11.0216 236.482 10.4776C237.026 9.93356 237.298 9.25622 237.298 8.44556C237.298 7.63489 237.026 6.95756 236.482 6.41356C235.938 5.86956 235.266 5.59756 234.466 5.59756C233.677 5.59756 233.01 5.86956 232.466 6.41356C231.922 6.95756 231.65 7.63489 231.65 8.44556C231.65 9.25622 231.922 9.93356 232.466 10.4776C233.01 11.0216 233.677 11.2936 234.466 11.2936ZM244.315 4.23756C245.254 4.23756 246.006 4.53622 246.571 5.13356C247.136 5.72022 247.419 6.52022 247.419 7.53356V12.4456H246.027V7.61356C246.027 6.96289 245.851 6.46156 245.499 6.10956C245.147 5.74689 244.662 5.56556 244.043 5.56556C243.35 5.56556 242.79 5.78422 242.363 6.22156C241.936 6.64822 241.723 7.30956 241.723 8.20556V12.4456H240.331V4.44556H241.723V5.59756C242.288 4.69089 243.152 4.23756 244.315 4.23756ZM250.338 9.08556C250.477 9.80022 250.802 10.3549 251.314 10.7496C251.837 11.1442 252.477 11.3416 253.234 11.3416C254.29 11.3416 255.058 10.9522 255.538 10.1736L256.722 10.8456C255.944 12.0509 254.77 12.6536 253.202 12.6536C251.933 12.6536 250.898 12.2589 250.098 11.4696C249.309 10.6696 248.914 9.66156 248.914 8.44556C248.914 7.24022 249.304 6.23756 250.082 5.43756C250.861 4.63756 251.869 4.23756 253.106 4.23756C254.28 4.23756 255.234 4.65356 255.97 5.48556C256.717 6.30689 257.09 7.29889 257.09 8.46156C257.09 8.66422 257.074 8.87222 257.042 9.08556H250.338ZM253.106 5.54956C252.36 5.54956 251.741 5.76289 251.25 6.18956C250.76 6.60556 250.456 7.16556 250.338 7.86956H255.682C255.565 7.11222 255.266 6.53622 254.786 6.14156C254.306 5.74689 253.746 5.54956 253.106 5.54956ZM266.674 4.23756C267.613 4.23756 268.365 4.53622 268.93 5.13356C269.496 5.72022 269.778 6.52022 269.778 7.53356V12.4456H268.386V7.61356C268.386 6.96289 268.21 6.46156 267.858 6.10956C267.506 5.74689 267.021 5.56556 266.402 5.56556C265.709 5.56556 265.149 5.78422 264.722 6.22156C264.296 6.64822 264.082 7.30956 264.082 8.20556V12.4456H262.69V1.24556H264.082V5.59756C264.648 4.69089 265.512 4.23756 266.674 4.23756ZM278.474 11.4376C277.652 12.2482 276.655 12.6536 275.482 12.6536C274.308 12.6536 273.311 12.2482 272.49 11.4376C271.679 10.6269 271.274 9.62956 271.274 8.44556C271.274 7.26156 271.679 6.26422 272.49 5.45356C273.311 4.64289 274.308 4.23756 275.482 4.23756C276.655 4.23756 277.652 4.64289 278.474 5.45356C279.295 6.26422 279.706 7.26156 279.706 8.44556C279.706 9.62956 279.295 10.6269 278.474 11.4376ZM275.482 11.2936C276.282 11.2936 276.954 11.0216 277.498 10.4776C278.042 9.93356 278.314 9.25622 278.314 8.44556C278.314 7.63489 278.042 6.95756 277.498 6.41356C276.954 5.86956 276.282 5.59756 275.482 5.59756C274.692 5.59756 274.026 5.86956 273.482 6.41356C272.938 6.95756 272.666 7.63489 272.666 8.44556C272.666 9.25622 272.938 9.93356 273.482 10.4776C274.026 11.0216 274.692 11.2936 275.482 11.2936ZM286.867 4.44556H288.259V12.4456H286.867V11.2936C286.301 12.2002 285.437 12.6536 284.275 12.6536C283.336 12.6536 282.584 12.3602 282.019 11.7736C281.453 11.1762 281.171 10.3709 281.171 9.35756V4.44556H282.563V9.27756C282.563 9.92822 282.739 10.4349 283.091 10.7976C283.443 11.1496 283.928 11.3256 284.547 11.3256C285.24 11.3256 285.8 11.1122 286.227 10.6856C286.653 10.2482 286.867 9.58156 286.867 8.68556V4.44556ZM291.77 5.78956C292.229 4.79756 293.061 4.30156 294.266 4.30156V5.75756C293.583 5.72556 292.997 5.90689 292.506 6.30156C292.015 6.69622 291.77 7.33089 291.77 8.20556V12.4456H290.378V4.44556H291.77V5.78956Z" fill="#FCFCFC" fill-opacity="0.7"/>
</svg>
